<svg xmlns="http://www.w3.org/2000/svg" viewBox="0 0 96 96" width="96" height="96"><circle cx="48" cy="48" r="48" fill="#C026D3"/><circle cx="48" cy="48" r="38" fill="#FFFFFF" fill-opacity="0.12"/><g fill="none" stroke="#FFFFFF" stroke-width="4.5" stroke-linecap="round" stroke-linejoin="round"><path d="M48 24c-14 0-25 10-25 23 0 13 10 23 23 23 4 0 6-2 6-5 0-2-1-3-1-5 0-3 2-5 5-5h6c7 0 11-5 11-11 0-11-11-20-25-20z"/><circle cx="36" cy="46" r="3" fill="#FFFFFF"/><circle cx="43" cy="35" r="3" fill="#FFFFFF"/><circle cx="56" cy="34" r="3" fill="#FFFFFF"/><circle cx="64" cy="43" r="3" fill="#FFFFFF"/></g></svg>
